<?xml version="1.0" standalone="no"?><!DOCTYPE svg PUBLIC "-//W3C//DTD SVG 1.1//EN" "http://www.w3.org/Graphics/SVG/1.1/DTD/svg11.dtd"><svg t="1612147333998" class="icon" viewBox="0 0 1024 1024" version="1.1" xmlns="http://www.w3.org/2000/svg" p-id="11510" xmlns:xlink="http://www.w3.org/1999/xlink" width="48" height="48"><defs><style type="text/css"></style></defs><path d="M512 922c-55.3 0-109-10.8-159.6-32.2-48.8-20.7-92.7-50.2-130.3-87.9-37.6-37.6-67.2-81.5-87.9-130.3C112.8 621 102 567.3 102 512s10.8-109 32.2-159.6c20.7-48.8 50.2-92.7 87.9-130.3 37.6-37.6 81.5-67.2 130.3-87.9C403 112.8 456.7 102 512 102s109 10.8 159.6 32.2c48.8 20.7 92.7 50.2 130.3 87.9 37.6 37.6 67.2 81.5 87.9 130.3C911.2 403 922 456.7 922 512s-10.8 109-32.2 159.6c-20.7 48.8-50.2 92.7-87.9 130.3-37.6 37.6-81.5 67.2-130.3 87.9C621 911.2 567.3 922 512 922z m0-750c-187.5 0-340 152.5-340 340s152.5 340 340 340 340-152.5 340-340-152.5-340-340-340z" fill="#151515" p-id="11511"></path><path d="M374.5 398.9m-48 0a48 48 0 1 0 96 0 48 48 0 1 0-96 0Z" fill="#151515" p-id="11512"></path><path d="M647.5 398.9m-48 0a48 48 0 1 0 96 0 48 48 0 1 0-96 0Z" fill="#151515" p-id="11513"></path><path d="M511.7 733.1c-48.2 0-93.8-20.1-128.4-56.7-33.4-35.3-52.6-82.9-52.6-130.7 0-13.8 11.2-25 25-25h312c13.8 0 25 11.2 25 25 0 47.8-19.2 95.4-52.6 130.7-34.6 36.6-80.2 56.7-128.4 56.7zM383 570.7c11.6 63 65.8 112.4 128.7 112.4s117.1-49.4 128.7-112.4H383z" fill="#151515" p-id="11514"></path></svg>