<?xml version="1.0" standalone="no"?><!DOCTYPE svg PUBLIC "-//W3C//DTD SVG 1.1//EN" "http://www.w3.org/Graphics/SVG/1.1/DTD/svg11.dtd"><svg t="1612160679227" class="icon" viewBox="0 0 1024 1024" version="1.1" xmlns="http://www.w3.org/2000/svg" p-id="16486" xmlns:xlink="http://www.w3.org/1999/xlink" width="48" height="48"><defs><style type="text/css"></style></defs><path d="M512 1024A512 512 0 1 1 512 0a512 512 0 0 1 0 1024zM512 85.357714a426.642286 426.642286 0 1 0 0 853.284572A426.642286 426.642286 0 0 0 512 85.357714zM512 227.474286c26.185143 0 47.396571 22.454857 47.396571 50.249143v301.129142c0 27.794286-21.211429 50.176-47.396571 50.176-26.185143 0-47.396571-22.454857-47.396571-50.176V277.723429c0-27.721143 21.211429-50.176 47.396571-50.176z m0 468.553143c26.185143 0 47.396571 22.528 47.396571 50.102857 0 27.794286-21.211429 50.322286-47.396571 50.322285-26.185143 0-47.396571-22.528-47.396571-50.249142 0-27.721143 21.211429-50.249143 47.396571-50.249143z" p-id="16487"></path></svg>